<svg width="70" height="80" viewBox="0 0 70 80" fill="none" xmlns="http://www.w3.org/2000/svg">
<g id="Frame 1">
<g id="LightGroup">
<path id="Light1" d="M38.5 39.134C39.1667 39.5189 39.1667 40.4811 38.5 40.866L11.5 56.4545C10.8333 56.8394 10 56.3583 10 55.5885L10 24.4115C10 23.6417 10.8333 23.1606 11.5 23.5455L38.5 39.134Z" fill="#72DDEC" fill-opacity="0.8"/>
</g>
<g id="Dark">
<path id="Dark2" d="M51.5 39.134C52.1667 39.5189 52.1667 40.4811 51.5 40.866L24.5 56.4545C23.8333 56.8394 23 56.3583 23 55.5885L23 24.4115C23 23.6417 23.8333 23.1606 24.5 23.5455L51.5 39.134Z" fill="#6F6DE1" fill-opacity="0.8"/>
<path id="Dark1" d="M38.5 39.134C39.1667 39.5189 39.1667 40.4811 38.5 40.866L11.5 56.4545C10.8333 56.8394 10 56.3583 10 55.5885L10 24.4115C10 23.6417 10.8333 23.1606 11.5 23.5455L38.5 39.134Z" fill="#6F6DE1" fill-opacity="0.8"/>
</g>
</g>
</svg>
